<svg width="1440" height="10" viewBox="0 0 1440 10" fill="none" xmlns="http://www.w3.org/2000/svg">
<path d="M-17 0V1.97776H-16.454C-14.4906 6.29627 -7.23534 9.5 1.43737 9.5C10.1101 9.5 17.3653 6.29627 19.3288 1.97776H20.3892C22.3526 6.29627 29.6079 9.5 38.2806 9.5C46.9533 9.5 54.2086 6.29627 56.172 1.97776H57.2534C59.2169 6.29627 66.4721 9.5 75.1448 9.5C83.8175 9.5 91.0728 6.29627 93.0362 1.97776H94.1177C96.0811 6.29627 103.336 9.5 112.009 9.5C120.682 9.5 127.937 6.29627 129.9 1.97776H130.982C132.945 6.29627 140.201 9.5 148.873 9.5C157.546 9.5 164.801 6.29627 166.765 1.97776H167.846C169.81 6.29627 177.065 9.5 185.738 9.5C194.41 9.5 201.666 6.29627 203.629 1.97776H204.71C206.674 6.29627 213.929 9.5 222.602 9.5C231.274 9.5 238.53 6.29627 240.493 1.97776H241.575C243.538 6.29627 250.793 9.5 259.466 9.5C268.139 9.5 275.394 6.29627 277.357 1.97776H278.439C280.402 6.29627 287.658 9.5 296.33 9.5C305.003 9.5 312.258 6.29627 314.222 1.97776H315.303C317.267 6.29627 324.522 9.5 333.194 9.5C341.867 9.5 349.122 6.29627 351.086 1.97776H352.167C354.131 6.29627 361.386 9.5 370.059 9.5C378.731 9.5 385.987 6.29627 387.95 1.97776H389.032C390.995 6.29627 398.25 9.5 406.923 9.5C415.596 9.5 422.851 6.29627 424.814 1.97776H425.896C427.859 6.29627 435.114 9.5 443.787 9.5C452.46 9.5 459.715 6.29627 461.679 1.97776H462.76C464.723 6.29627 471.979 9.5 480.651 9.5C489.324 9.5 496.579 6.29627 498.543 1.97776H499.624C501.588 6.29627 508.843 9.5 517.516 9.5C526.188 9.5 533.444 6.29627 535.407 1.97776H536.489C538.452 6.29627 545.707 9.5 554.38 9.5C563.053 9.5 570.308 6.29627 572.271 1.97776H573.353C575.316 6.29627 582.571 9.5 591.244 9.5C599.917 9.5 607.172 6.29627 609.136 1.97776H610.217C612.18 6.29627 619.436 9.5 628.108 9.5C636.781 9.5 644.036 6.29627 646 1.97776H647.081C649.045 6.29627 656.3 9.5 664.973 9.5C673.645 9.5 680.901 6.29627 682.864 1.97776H683.945C685.909 6.29627 693.164 9.5 701.837 9.5C710.51 9.5 717.765 6.29627 719.728 1.97776H720.81C722.773 6.29627 730.028 9.5 738.701 9.5C747.374 9.5 754.629 6.29627 756.592 1.97776H757.674C759.637 6.29627 766.893 9.5 775.565 9.5C784.238 9.5 791.493 6.29627 793.457 1.97776H794.538C796.502 6.29627 803.757 9.5 812.43 9.5C821.102 9.5 828.357 6.29627 830.321 1.97776H831.402C833.366 6.29627 840.621 9.5 849.294 9.5C857.966 9.5 865.222 6.29627 867.185 1.97776H868.267C870.23 6.29627 877.485 9.5 886.158 9.5C894.831 9.5 902.086 6.29627 904.049 1.97776H905.131C907.094 6.29627 914.35 9.5 923.022 9.5C931.695 9.5 938.95 6.29627 940.914 1.97776H941.995C943.958 6.29627 951.214 9.5 959.886 9.5C968.559 9.5 975.814 6.29627 977.778 1.97776H978.859C980.823 6.29627 988.078 9.5 996.751 9.5C1005.42 9.5 1012.68 6.29627 1014.64 1.97776H1015.72C1017.69 6.29627 1024.94 9.5 1033.61 9.5C1042.29 9.5 1049.54 6.29627 1051.51 1.97776H1052.59C1054.55 6.29627 1061.81 9.5 1070.48 9.5C1079.15 9.5 1086.41 6.29627 1088.37 1.97776H1089.45C1091.42 6.29627 1098.67 9.5 1107.34 9.5C1116.02 9.5 1123.27 6.29627 1125.23 1.97776H1126.32C1128.28 6.29627 1135.53 9.5 1144.21 9.5C1152.88 9.5 1160.14 6.29627 1162.1 1.97776H1163.18C1165.14 6.29627 1172.4 9.5 1181.07 9.5C1189.74 9.5 1197 6.29627 1198.96 1.97776H1200.04C1202.01 6.29627 1209.26 9.5 1217.94 9.5C1226.61 9.5 1233.86 6.29627 1235.83 1.97776H1236.91C1238.87 6.29627 1246.13 9.5 1254.8 9.5C1263.47 9.5 1270.73 6.29627 1272.69 1.97776H1273.77C1275.74 6.29627 1282.99 9.5 1291.66 9.5C1300.34 9.5 1307.59 6.29627 1309.56 1.97776H1310.64C1312.6 6.29627 1319.86 9.5 1328.53 9.5C1337.2 9.5 1344.46 6.29627 1346.42 1.97776H1347.5C1349.47 6.29627 1356.72 9.5 1365.39 9.5C1374.07 9.5 1381.32 6.29627 1383.28 1.97776H1384.37C1386.33 6.29627 1393.58 9.5 1402.26 9.5C1410.93 9.5 1418.19 6.29627 1420.15 1.97776H1421.25C1423.21 6.29627 1430.47 9.5 1439.14 9.5C1447.82 9.5 1455.07 6.29627 1457.03 1.97776H1457.58V0H-17Z" fill="white"/>
</svg>
