<svg width="129" height="40" viewBox="0 0 129 40" fill="none" xmlns="http://www.w3.org/2000/svg">
<g clip-path="url(#clip0_20_103)">
<path d="M0 16.117V5.14516C0 4.79415 0.189087 4.61865 0.564395 4.61865H26.0653C26.4091 4.61865 26.581 4.79415 26.581 5.14516V16.117C26.581 16.468 26.4091 16.6406 26.0653 16.6406H17.7885C17.8916 19.826 17.9947 22.9909 18.0979 26.1411C18.201 29.2914 18.3042 32.7898 18.4073 36.6391C18.4073 36.9901 18.2354 37.1656 17.8945 37.1656H15.7859V38.8973H16.7112C17.0894 38.8973 17.2756 39.0728 17.2756 39.4208C17.2756 39.804 17.0865 39.9971 16.7112 39.9971H13.6257C13.2819 39.9971 13.11 39.804 13.11 39.4208C13.11 39.0698 13.2819 38.8973 13.6257 38.8973H14.6542V37.1656H10.6433V38.8973H11.5687C11.944 38.8973 12.1331 39.0728 12.1331 39.4208C12.1331 39.804 11.944 39.9971 11.5687 39.9971H8.53468C8.15651 39.9971 7.97029 39.804 7.97029 39.4208C7.97029 39.0698 8.15937 38.8973 8.53468 38.8973H9.51163V37.1656H8.07342C7.72963 37.1656 7.55773 36.9901 7.55773 36.6391C7.69525 32.7898 7.83277 29.2885 7.97029 26.1411C8.1078 22.9909 8.24532 19.823 8.37997 16.6406H0.564395C0.186222 16.6406 0 16.4651 0 16.117ZM3.95936 0.576234C4.40342 0.365631 4.84176 0.219378 5.2715 0.131627C5.69838 0.0438757 6.10234 0 6.48051 0C7.19961 0 7.84996 0.114077 8.43441 0.34223C9.01599 0.570384 9.52309 0.813163 9.94996 1.07642C10.3768 1.33967 10.8324 1.71408 11.3137 2.20548C11.4168 2.31079 11.4684 2.44241 11.4684 2.60037C11.4684 2.75832 11.3996 2.88994 11.2621 2.99525C11.159 3.10055 11.0386 3.1532 10.9011 3.1532C10.7292 3.1532 10.5917 3.083 10.4886 2.9426C10.4542 2.9075 10.3339 2.79342 10.1276 2.60037C9.92131 2.40731 9.64628 2.19671 9.30535 1.97148C8.96156 1.74333 8.55187 1.54442 8.07056 1.36892C7.58925 1.19342 7.05923 1.10567 6.47765 1.10567C5.8273 1.10567 5.13972 1.26362 4.42061 1.5766C4.38624 1.6117 4.31748 1.62925 4.21434 1.62925C3.9393 1.62925 3.76741 1.52395 3.70151 1.31335C3.52962 0.965265 3.61556 0.719561 3.95936 0.579159V0.576234ZM8.58625 10.6559C8.8269 10.6559 9.0561 10.577 9.27957 10.419C9.50303 10.2611 9.61477 10.0446 9.61477 9.7638C9.64914 9.483 9.5632 9.23144 9.35692 9.00329C9.15064 8.77514 8.8928 8.66106 8.58625 8.66106C8.31121 8.66106 8.07915 8.75759 7.89293 8.95064C7.70384 9.14369 7.6093 9.38062 7.6093 9.6585C7.6093 9.93638 7.70384 10.1762 7.89293 10.3664C8.08202 10.5594 8.31121 10.6559 8.58625 10.6559ZM15.3733 2.20548C15.889 1.717 16.3589 1.33967 16.7886 1.07642C17.2155 0.813163 17.7226 0.570384 18.3042 0.34223C18.8857 0.114077 19.5389 0 20.258 0C21.1147 0 21.9369 0.193053 22.7248 0.576234C23.0657 0.681536 23.1688 0.927239 23.0342 1.31042C22.931 1.52102 22.7591 1.62633 22.5214 1.62633C22.4182 1.62633 22.3323 1.60878 22.2635 1.57367C21.5444 1.25777 20.8568 1.10274 20.2065 1.10274C19.6249 1.10274 19.092 1.19049 18.6136 1.366C18.1323 1.5415 17.7226 1.74333 17.3788 1.96856C17.035 2.19671 16.7628 2.40731 16.5565 2.59744C16.3503 2.79049 16.2299 2.90457 16.1956 2.93967C16.0924 3.08007 15.9549 3.15027 15.783 3.15027C15.6455 3.15027 15.5252 3.09762 15.422 2.99232C15.147 2.71152 15.1298 2.45119 15.3704 2.20548H15.3733ZM17.1209 9.71115C17.1209 9.99196 17.2155 10.2201 17.4046 10.3927C17.5936 10.5682 17.8228 10.6559 18.0979 10.6559C18.7482 10.6559 19.0748 10.3225 19.0748 9.6585C19.0748 8.99452 18.7482 8.66106 18.0979 8.66106C17.8228 8.66106 17.5822 8.76636 17.3788 8.97696C17.1754 9.18757 17.0865 9.43327 17.1209 9.71115Z" fill="#7754F6"/>
<path d="M71.8271 24.5674C72.2053 24.5674 72.3915 24.7605 72.3915 25.1437V37.0603C72.3915 37.4464 72.2024 37.6366 71.8271 37.6366L68.8963 37.5839C65.7763 37.5488 62.9916 37.1217 60.5421 36.2969C58.0897 35.4749 56.0269 34.3547 54.3452 32.9389C52.6663 31.5203 51.3886 29.8501 50.5148 27.9254C49.6409 26.0007 49.2026 23.9356 49.2026 21.7302C49.2026 19.3843 49.5693 17.1817 50.3085 15.1166C51.0448 13.0515 52.2882 11.2497 54.0358 9.71114C55.7834 8.17257 58.1069 6.95575 61.0033 6.06361C63.8998 5.17147 67.5068 4.72394 71.8271 4.72394C72.2053 4.72394 72.3915 4.91699 72.3915 5.30017L72.2884 12.0717C72.2884 12.4578 72.1165 12.6479 71.7755 12.6479C71.2598 12.6479 70.6954 12.6391 70.0795 12.6216C69.4635 12.604 68.8103 12.5952 68.1256 12.5952C66.9595 12.5952 65.7505 12.6567 64.5014 12.7795C63.2494 12.9024 62.1264 13.1744 61.1351 13.5927C60.141 14.0139 59.3187 14.6164 58.6684 15.4033C58.018 16.1901 57.6914 17.249 57.6914 18.5799C57.6914 19.981 58.0782 21.072 58.8489 21.8618C59.6196 22.6515 60.5879 23.2453 61.7539 23.6461C62.92 24.0497 64.1863 24.3013 65.5586 24.4066C66.928 24.5119 68.2144 24.5645 69.4148 24.5645H71.83L71.8271 24.5674ZM58.8689 8.19012C58.5939 8.19012 58.3618 8.28664 58.1756 8.4797C57.9865 8.67275 57.892 8.90968 57.892 9.18756C57.892 9.46544 57.9865 9.71114 58.1756 9.92174C58.3647 10.1323 58.5939 10.2376 58.8689 10.2376C59.144 10.2376 59.3846 10.1323 59.588 9.92174C59.7915 9.71114 59.8975 9.46836 59.8975 9.18756C59.8975 8.90675 59.7943 8.67275 59.588 8.4797C59.3818 8.28957 59.1411 8.19012 58.8689 8.19012Z" fill="#10BE79"/>
<path d="M74.2422 38.8446C74.3454 35.8698 74.4571 33.053 74.5774 30.3941C74.6978 27.7353 74.8095 25.0998 74.9126 22.4936C75.0158 19.8874 75.1189 17.2519 75.2221 14.593C75.3252 11.9342 75.4283 9.11735 75.5315 6.13966C75.4971 5.96416 75.5315 5.82375 75.6346 5.72138C75.7377 5.61607 75.8753 5.56342 76.0472 5.56342H83.6049C83.9802 5.56342 84.1693 5.75648 84.1693 6.13966C84.2381 8.55575 84.2982 10.8724 84.3498 13.0954C84.4014 15.3185 84.4615 17.4976 84.5303 19.6329H89.6213C89.5181 17.1466 89.415 14.6632 89.3119 12.177C89.2087 9.69359 89.1228 7.1371 89.054 4.51333C89.0196 4.33783 89.054 4.19743 89.1572 4.09213C89.2603 3.98682 89.395 3.93417 89.5697 3.93417H99.3392C99.7174 3.93417 99.9036 4.12723 99.9036 4.51041C99.8348 7.48518 99.7575 10.3897 99.6715 13.2241C99.5856 16.0585 99.4996 18.8753 99.4137 21.6746C99.3277 24.4738 99.2504 27.2907 99.1816 30.125C99.1129 32.9594 99.0441 35.864 98.9753 38.8387C98.9066 39.2249 98.7175 39.415 98.4109 39.415H90.8532C90.475 39.415 90.2888 39.2219 90.2888 38.8387C90.2201 36.2852 90.1427 33.7989 90.0568 31.3857C89.9708 28.9696 89.8763 26.5565 89.7731 24.1404H84.6821C84.7509 26.4863 84.8196 28.8556 84.8884 31.2541C84.9571 33.6526 85.0259 36.1799 85.0947 38.8387C85.129 39.0142 85.0947 39.1547 84.9915 39.26C84.8884 39.3653 84.7509 39.4179 84.579 39.4179H74.8095C74.4313 39.4179 74.2451 39.2248 74.2451 38.8417L74.2422 38.8446Z" fill="#FF7934"/>
<path d="M129 19.4223C129 20.8585 128.82 22.2303 128.461 23.5437C128.103 24.857 127.588 26.0739 126.92 27.1912C126.253 28.3115 125.456 29.3265 124.528 30.2362C123.602 31.1459 122.591 31.9152 121.494 32.547L122.368 37.7945L123.857 37.426C124.236 37.3558 124.456 37.5137 124.525 37.8998C124.594 38.2508 124.456 38.4614 124.115 38.5287L122.11 38.9996H122.007C121.904 38.9996 121.8 38.9909 121.697 38.9733C121.594 38.9558 121.508 38.8943 121.439 38.789C121.439 38.7539 121.431 38.7188 121.414 38.6837C121.396 38.6486 121.388 38.596 121.388 38.5258L120.462 33.0676C118.749 33.8369 116.967 34.223 115.116 34.223C114.26 34.223 113.438 34.1353 112.65 33.9598C111.862 33.7843 111.088 33.559 110.335 33.2782L107.559 37.5839L108.845 38.3707C108.983 38.4409 109.069 38.555 109.103 38.713C109.137 38.8709 109.12 39.0201 109.051 39.1576C108.983 39.3331 108.828 39.4208 108.587 39.4208C108.45 39.4208 108.347 39.4033 108.278 39.3682L106.53 38.2654H106.427C106.152 38.0548 106.1 37.7916 106.272 37.4786L109.306 32.8073C108.14 32.2135 107.06 31.4618 106.066 30.5492C105.072 29.6395 104.224 28.6069 103.522 27.4516C102.82 26.2962 102.27 25.0384 101.878 23.6724C101.482 22.3064 101.287 20.8907 101.287 19.4194C101.287 17.3543 101.648 15.4296 102.367 13.6453C103.087 11.8611 104.081 10.2932 105.35 8.94772C106.619 7.59927 108.092 6.54333 109.77 5.77112C111.449 5.00183 113.231 4.61572 115.116 4.61572C117.002 4.61572 118.835 5.00183 120.514 5.77112C122.193 6.5404 123.668 7.59927 124.935 8.94772C126.204 10.2962 127.198 11.8611 127.917 13.6453C128.636 15.4296 128.997 17.3543 128.997 19.4194L129 19.4223ZM108.435 12.9141C108.71 12.9141 108.948 12.8176 109.154 12.6245C109.361 12.4314 109.464 12.1974 109.464 11.9166C109.464 11.6358 109.361 11.3901 109.154 11.1825C108.948 10.9748 108.708 10.8665 108.435 10.8665C108.163 10.8665 107.928 10.9718 107.742 11.1825C107.553 11.3931 107.458 11.6388 107.458 11.9166C107.458 12.1945 107.553 12.4314 107.742 12.6245C107.931 12.8176 108.16 12.9141 108.435 12.9141ZM119.334 20.525C119.609 20.3846 119.804 20.1155 119.924 19.7119C120.044 19.3112 120.087 18.8373 120.053 18.2932C120.018 17.7521 119.898 17.1378 119.692 16.4563C119.485 15.7748 119.21 15.0845 118.87 14.3824C118.254 13.1569 117.566 12.1682 116.813 11.4165C116.059 10.6647 115.389 10.2874 114.807 10.2874C114.704 10.2874 114.549 10.3225 114.343 10.3927C114.068 10.5331 113.87 10.8051 113.753 11.2059C113.632 11.6095 113.589 12.0804 113.624 12.6245C113.658 13.1656 113.779 13.7799 113.985 14.4614C114.191 15.143 114.463 15.8362 114.807 16.5353C115.423 17.7609 116.111 18.7495 116.864 19.5013C117.618 20.2559 118.285 20.6303 118.87 20.6303C118.973 20.6303 119.127 20.5952 119.334 20.525Z" fill="#F574AE"/>
<path d="M50.7468 38.8446C49.959 35.8698 49.1797 32.9653 48.4062 30.1309C47.6326 27.2965 46.8705 24.4797 46.1171 21.6804C45.3636 18.8812 44.6072 16.0643 43.8538 13.23C43.1003 10.3956 42.3296 7.49104 41.5389 4.51627C41.4701 4.23546 41.2982 4.06288 41.0232 3.99268H40.9716C40.9716 3.95758 40.9544 3.94003 40.92 3.94003H33.2076V3.99268C32.8982 4.06288 32.7091 4.23839 32.6432 4.51627C31.8897 7.49104 31.1334 10.3956 30.3799 13.23C29.6264 16.0643 28.8701 18.8812 28.1166 21.6804C27.3631 24.4797 26.601 27.2965 25.8275 30.1309C25.054 32.9653 24.2604 35.8698 23.4353 38.8446C23.3665 39.2307 23.5212 39.4208 23.8994 39.4208H33.6689C33.8064 39.4208 33.9439 39.3682 34.0814 39.2629C34.2189 39.1576 34.3049 39.0201 34.3393 38.8417C34.5112 38.0022 34.6802 37.1539 34.8521 36.2969C35.024 35.4398 35.1959 34.6091 35.3678 33.8047H38.863C39.0349 34.6091 39.2068 35.4398 39.3787 36.2969C39.5506 37.1539 39.7196 38.0022 39.8915 38.8417C39.9603 39.2278 40.1838 39.4179 40.5591 39.4179H50.3285C50.5004 39.4179 50.6294 39.3653 50.7153 39.26C50.8013 39.1547 50.8098 39.0172 50.7411 38.8387L50.7468 38.8446ZM33.2334 22.6808C32.583 22.672 32.2536 22.2333 32.2536 21.6804C32.2536 21.1276 32.6919 20.6801 33.2334 20.6801C33.7749 20.6801 34.2132 20.9667 34.2132 21.6804C34.2132 22.3941 33.7749 22.6866 33.2334 22.6808ZM40.9888 22.6808C40.3385 22.672 40.009 22.2333 40.009 21.6804C40.009 21.1276 40.4473 20.6801 40.9888 20.6801C41.5303 20.6801 41.9686 20.9667 41.9686 21.6804C41.9686 22.3941 41.5303 22.6866 40.9888 22.6808Z" fill="#00CACC"/>
</g>
<defs>
<clipPath id="clip0_20_103">
<rect width="129" height="40" fill="white"/>
</clipPath>
</defs>
</svg>
